<svg xmlns="http://www.w3.org/2000/svg" xmlns:v="https://vecta.io/nano" viewBox="0 0 300 100"><path d="M118.43 79.9a11.51 11.51 0 0 1-10.84-7.19 12.21 12.21 0 0 1-.89-4.64V68a12 12 0 0 1 .88-4.62 11.44 11.44 0 0 1 2.42-3.77 11.64 11.64 0 0 1 3.8-2.61 12.05 12.05 0 0 1 4.8-.93 14.1 14.1 0 0 1 2.87.26 11.94 11.94 0 0 1 2.39.74 11.76 11.76 0 0 1 2 1.13 15 15 0 0 1 1.74 1.45l-2.59 3a13.26 13.26 0 0 0-2.93-2.07 7.57 7.57 0 0 0-3.52-.79 7.21 7.21 0 0 0-3 .64 7.63 7.63 0 0 0-2.41 1.74 7.9 7.9 0 0 0-1.58 2.58 8.94 8.94 0 0 0-.56 3.16V68a9.08 9.08 0 0 0 .56 3.17 7.93 7.93 0 0 0 1.58 2.61 7.39 7.39 0 0 0 2.41 1.76 7.21 7.21 0 0 0 3 .64 7.56 7.56 0 0 0 3.62-.81 13.75 13.75 0 0 0 3-2.18l2.6 2.63a14.65 14.65 0 0 1-1.86 1.69 12.31 12.31 0 0 1-2.09 1.28 10.3 10.3 0 0 1-2.44.82 14.15 14.15 0 0 1-2.95.28m14.69-23.39h17.02v3.65h-13.02v5.92h11.54v3.65h-11.54v6.14h13.19v3.65h-17.19V56.5zm23.17 0h3.74l12.3 15.91V56.5h4.01v23.01h-3.38l-12.66-16.37v16.37h-4.01V56.5zm32.77 3.75h-7.3V56.5h18.67v3.75h-7.3v19.26h-4.07V60.25zm26.74 7.66a5.37 5.37 0 0 0 3.46-1 3.45 3.45 0 0 0 1.29-2.91h0a3.4 3.4 0 0 0-1.26-2.86 5.62 5.62 0 0 0-3.53-1h-5.9v7.76zm-9.95-11.41h10.26a11.09 11.09 0 0 1 3.84.61 7.88 7.88 0 0 1 2.8 1.69 6.79 6.79 0 0 1 1.41 2.2 7.5 7.5 0 0 1 .49 2.77v.06a7.34 7.34 0 0 1-.41 2.55 6.59 6.59 0 0 1-2.86 3.48 8.41 8.41 0 0 1-2.21.94l6.21 8.71h-4.77l-5.67-8h-5.08v8h-4zm38.85 13.87l-4-9.2-4 9.2zm-5.78-14h3.75l10.12 23.14h-4.27L246.19 74h-10.88L233 79.51h-4.14zm18.96.13v23.01H274v-3.65h-12.1V56.5h-4.01z" fill="#4a1aaf"></path><path d="M114.5 27.83h-7.3v-3.75h18.67v3.75h-7.29v19.26h-4.08V27.83zm16.8-3.75h17.02v3.65h-13.01v5.92h11.53v3.64h-11.53v6.15h13.18v3.65H131.3V24.08zM168.41 38l-4-9.2-4 9.2zm-5.79-14h3.75l10.12 23.17h-4.27l-2.34-5.56H159l-2.36 5.56h-4.14zm18.97.08h4.3l7 10.88 7-10.88h4.31v23.01h-4.01v-16.5l-7.26 10.85h-.14l-7.19-10.78v16.43h-4.01V24.08z" fill="#231f20"></path><path d="M30.5,59.68c-4.06,4.17-6.2,11-6.57,13.39s.49,2.8,1.34,2.92,3.55-.63,8.44-2.95L32.53,58a12.76,12.76,0,0,0-2,1.66" fill="#bbbcc0"></path><path d="M66.36 58.59c-4.27-4.38-9.63-4.56-11-4.73H44.77a39.84 39.84 0 0 0-7.05 1.67.7.7 0 0 0-.15.43 1 1 0 0 0 1 1c.57 0 8.44-.16 8.85-.16a2.68 2.68 0 0 1 2.67 2.76c.08 2.41.09 23 .09 24.79a15.58 15.58 0 0 0 15.39-11.52c.05 0 .25-.67.26-.72 1.78-5.07.53-13.52.53-13.52" fill="#85898e"></path><path d="M47.47 56.8l-8.85.16a1 1 0 0 1-1-1 .7.7 0 0 1 .15-.43A22.43 22.43 0 0 0 32.53 58l1.18 15 .93-.46a15.93 15.93 0 0 0 15.48 11.81h.11l-.09-24.79a2.68 2.68 0 0 0-2.67-2.76" fill="#bbbcc0"></path><path d="M67.52 72c4.57-3.58 7.58-10 8.26-12.4s-.12-2.84-1-3.07-3.6.17-8.75 1.84l-.78 15A12.71 12.71 0 0 0 67.52 72m-36.29 2.19l3.47-1.61-1.72-9.35c0-.2-1.89 2.09-2.3 5.34s0 4.8.55 5.62" fill="#85898e"></path><path d="M40.35 13.83h0a18.57 18.57 0 0 0-17.6 12.64l-3.79.83a12 12 0 0 0-1.29 4.7c0 1.75.81 4.56 1.16 4.74s3.12.83 3.68.93A18.58 18.58 0 0 0 40.32 51h9.53V13.83z" fill="#bbbcc0"></path><path d="M81,27.3c-.21-.14-4-.86-4-.87a18.59,18.59,0,0,0-17.59-12.6H49.86V51h9.53A18.58,18.58,0,0,0,77.26,37.46c0,.13,0,.21.06.21.28,0,3.41-.78,3.76-1s1.16-3,1.16-4.74A12,12,0,0,0,81,27.3" fill="#85898e"></path><path d="M59.28,20.87H40.34a11.77,11.77,0,0,0,0,23.54H59.28a11.77,11.77,0,0,0,0-23.54" fill="#4a1aaf"></path><path d="M49.85,23.75h-9.3c-6.21,0-11.74,4.89-11.74,10.91a11.78,11.78,0,0,0,11.6,9.75h2.27v2.92s.07,1.4,1,.53c.81-.72,2.82-2.74,3.52-3.45h2.6Z" fill="#744fc1"></path><path d="M42.47 32.36A3.48 3.48 0 1 1 39 28.88a3.48 3.48 0 0 1 3.48 3.48m21.95 0A3.48 3.48 0 1 1 61 28.88a3.48 3.48 0 0 1 3.48 3.48m-10.36 3.76h-8.49v.07a4.25 4.25 0 0 0 8.49 0h0z" fill="#fff"></path></svg>